<?xml version="1.0" encoding="utf-8"?>
<!-- Generator: Adobe Illustrator 26.0.3, SVG Export Plug-In . SVG Version: 6.00 Build 0)  -->
<svg version="1.1" id="Layer_1" xmlns="http://www.w3.org/2000/svg" xmlns:xlink="http://www.w3.org/1999/xlink" x="0px" y="0px"
	 viewBox="0 0 166.5 55.1" style="enable-background:new 0 0 166.5 55.1;" xml:space="preserve">
<style type="text/css">
	.st0{fill:#F8951D;}
	.st1{fill:#FFFFFF;}
</style>
<g>
	<g>
		<g>
			<path class="st0" d="M54,46.7c-1.1-1-1.7-2.5-1.7-4.4c0-1.9,0.6-3.4,1.7-4.5s2.9-1.7,5.3-1.7c3.4,0,5.6,1.2,6.8,3.5
				c-1,0.3-2.1,0.8-3.4,1.5c-0.3-0.6-0.8-1-1.5-1.3s-1.3-0.4-2-0.4c-1,0-1.8,0.3-2.3,0.8c-0.5,0.5-0.8,1.2-0.8,2
				c0,0.9,0.3,1.6,0.8,2.1c0.5,0.5,1.4,0.8,2.5,0.8c0.9,0,1.6-0.1,2.1-0.4c0.5-0.3,0.9-0.8,1.2-1.4c0.9,0.5,2,1,3.4,1.6
				c-0.5,1.3-1.4,2.2-2.7,2.7c-1.2,0.5-2.6,0.8-4.1,0.8C56.9,48.2,55.2,47.7,54,46.7z"/>
			<path class="st0" d="M77.5,48.1c-0.2-0.6-0.5-1.4-0.8-2.3h-5.1l-0.8,2.3h-4l4.5-11.6h5.9l4.5,11.6H77.5z M75.8,43.3
				c-0.4-1.1-0.8-2.2-1.3-3.4l-0.4-1c-0.4,1-0.9,2.4-1.7,4.4H75.8z"/>
			<path class="st0" d="M95.4,39.8c-1.7-0.1-3.3-0.1-4.9-0.1v8.4h-4v-8.4c-1.6,0-3.2,0-4.9,0.1v-3.4h13.8V39.8z"/>
			<path class="st0" d="M100.4,45.1c4.1,0,7-0.1,8.8-0.2c-0.1,0.4-0.1,0.9-0.1,1.4c0,0.5,0,1,0,1.8H96.6c0.1-2.1,0.1-4,0.1-5.8
				c0-1.8,0-3.7-0.1-5.8h12.5v2.9h-8.7v1.5c0.5,0,1.3,0,2.3,0c1.7,0,3.5,0,5.3-0.1v2.8c-1.8-0.1-3.6-0.1-5.3-0.1c-1,0-1.8,0-2.3,0
				V45.1z"/>
			<path class="st0" d="M122.7,42.6c-0.5,0.6-1.2,1.1-2.3,1.4c0.1,0.2,0.2,0.3,0.3,0.4l2.6,3.6h-4.4c-0.5-0.9-1.2-2.1-2.2-3.7h-2.4
				v3.7h-3.8c0.1-2.1,0.1-4,0.1-5.8c0-1.8,0-3.7-0.1-5.8h3.8v0h3.3c2.2,0,3.7,0.3,4.5,1c0.9,0.7,1.3,1.6,1.3,2.8
				C123.4,41.2,123.2,42,122.7,42.6z M114.3,39.5v1.8h2.2c0.9,0,1.6,0,2.1-0.1c0.5-0.1,0.8-0.2,1-0.3c0.2-0.1,0.3-0.3,0.3-0.6
				c0-0.2-0.1-0.4-0.3-0.5c-0.2-0.1-0.5-0.2-1-0.3c-0.5-0.1-1.2-0.1-2.1-0.1H114.3z"/>
			<path class="st0" d="M134,39.6c-1.3-0.1-2.2-0.1-2.8-0.1V45c0.6,0,1.6,0,2.8-0.1v3.2h-9.3v-3.2c1.2,0.1,2.2,0.1,2.8,0.1v-5.5
				c-0.6,0-1.6,0-2.8,0.1v-3.2h9.3V39.6z"/>
			<path class="st0" d="M148.8,36.4c-0.1,1.8-0.1,3.7-0.1,5.8c0,2.1,0,4,0.1,5.8H143l-3.9-8.8l0.3,8.8h-4.1c0.1-2.1,0.1-4,0.1-5.8
				c0-1.8,0-3.7-0.1-5.8h5.9l3.9,9l-0.3-9H148.8z"/>
			<path class="st0" d="M156.6,41.4h6.8v6.6h-2.8l-0.3-2.8c-0.3,1-0.9,1.8-1.7,2.3c-0.8,0.5-1.8,0.7-3,0.7c-1.1,0-2-0.2-2.9-0.7
				c-0.8-0.5-1.5-1.2-2-2.1c-0.5-0.9-0.7-1.9-0.7-3.1c0-1.9,0.6-3.4,1.7-4.5c1.1-1.1,2.9-1.7,5.3-1.7c1.4,0,2.6,0.2,3.6,0.7
				c1.1,0.4,1.9,1.1,2.7,2.1c-0.5,0.2-1.4,0.7-2.8,1.5l-0.4,0.2c-0.4-0.4-0.9-0.7-1.5-0.9c-0.6-0.2-1.1-0.3-1.8-0.3
				c-1,0-1.8,0.3-2.3,0.8c-0.5,0.5-0.8,1.2-0.8,2c0,0.9,0.3,1.5,0.8,2.1c0.5,0.5,1.4,0.8,2.5,0.8c0.5,0,0.9-0.1,1.4-0.2
				c0.5-0.1,0.8-0.4,1.1-0.7h-3.1V41.4z"/>
		</g>
	</g>
	<g>
		<path class="st1" d="M55.2,32.4h-0.9v-8.5h0.9V32.4z M60.6,28.4h-5.5v-0.8h5.5V28.4z M60.5,23.8h0.9v8.5h-0.9V23.8z"/>
		<path class="st1" d="M65.8,32.4c-0.5,0-0.9-0.1-1.3-0.2c-0.4-0.2-0.6-0.4-0.8-0.7c-0.2-0.3-0.3-0.6-0.3-1c0-0.3,0.1-0.6,0.2-0.9
			c0.2-0.3,0.4-0.5,0.8-0.7s0.8-0.2,1.5-0.2h2.2v0.6H66c-0.6,0-1,0.1-1.3,0.3c-0.2,0.2-0.4,0.5-0.4,0.8c0,0.4,0.1,0.7,0.4,0.9
			c0.3,0.2,0.7,0.3,1.2,0.3c0.5,0,0.9-0.1,1.3-0.3c0.4-0.2,0.6-0.5,0.8-1l0.2,0.6c-0.2,0.4-0.4,0.8-0.8,1
			C66.9,32.3,66.4,32.4,65.8,32.4z M68,32.4V31l0-0.2v-2.4c0-0.5-0.2-1-0.5-1.3c-0.3-0.3-0.8-0.4-1.4-0.4c-0.4,0-0.8,0.1-1.2,0.2
			c-0.4,0.1-0.7,0.3-1,0.5l-0.4-0.6c0.3-0.3,0.7-0.5,1.2-0.6c0.5-0.2,0.9-0.2,1.4-0.2c0.8,0,1.5,0.2,1.9,0.6c0.5,0.4,0.7,1,0.7,1.9
			v4H68z"/>
		<path class="st1" d="M79.2,25.9c0.5,0,1,0.1,1.4,0.3c0.4,0.2,0.7,0.5,0.9,0.9c0.2,0.4,0.3,0.9,0.3,1.5v3.7h-0.9v-3.6
			c0-0.7-0.2-1.2-0.5-1.5c-0.3-0.3-0.8-0.5-1.4-0.5c-0.4,0-0.8,0.1-1.1,0.3c-0.3,0.2-0.6,0.4-0.7,0.8c-0.2,0.3-0.3,0.8-0.3,1.3v3.4
			h-0.9v-3.6c0-0.7-0.2-1.2-0.5-1.5c-0.3-0.3-0.8-0.5-1.4-0.5c-0.4,0-0.8,0.1-1.1,0.3s-0.6,0.4-0.8,0.8c-0.2,0.3-0.3,0.8-0.3,1.3
			v3.4h-0.9V26H72v1.7l-0.1-0.3c0.2-0.5,0.5-0.8,0.9-1.1c0.4-0.3,0.9-0.4,1.5-0.4c0.6,0,1.2,0.2,1.6,0.5c0.4,0.3,0.7,0.8,0.9,1.4
			l-0.3-0.1c0.2-0.5,0.5-0.9,1-1.3C78,26.1,78.5,25.9,79.2,25.9z"/>
		<path class="st1" d="M84.6,24.5c-0.2,0-0.3-0.1-0.5-0.2S84,24.1,84,23.9c0-0.2,0.1-0.3,0.2-0.4s0.3-0.2,0.5-0.2
			c0.2,0,0.3,0.1,0.5,0.2c0.1,0.1,0.2,0.3,0.2,0.4c0,0.2-0.1,0.3-0.2,0.5C84.9,24.5,84.8,24.5,84.6,24.5z M84.1,32.4V26H85v6.4H84.1
			z"/>
		<path class="st1" d="M90,32.4c-0.6,0-1.2-0.1-1.6-0.4c-0.5-0.3-0.9-0.7-1.1-1.2c-0.3-0.5-0.4-1.1-0.4-1.7c0-0.7,0.1-1.2,0.4-1.7
			c0.3-0.5,0.7-0.9,1.1-1.1c0.5-0.3,1-0.4,1.6-0.4c0.6,0,1.1,0.1,1.5,0.4c0.4,0.3,0.8,0.6,1.1,1.1c0.3,0.5,0.4,1.1,0.4,1.8
			c0,0.7-0.1,1.3-0.4,1.8c-0.3,0.5-0.6,0.9-1.1,1.1C91.1,32.3,90.5,32.4,90,32.4z M90,31.7c0.5,0,0.9-0.1,1.2-0.3s0.6-0.5,0.9-0.9
			c0.2-0.4,0.3-0.8,0.3-1.3c0-0.5-0.1-0.9-0.3-1.3c-0.2-0.4-0.5-0.7-0.9-0.9c-0.4-0.2-0.8-0.3-1.2-0.3c-0.4,0-0.9,0.1-1.2,0.3
			c-0.4,0.2-0.6,0.5-0.9,0.9c-0.2,0.4-0.3,0.8-0.3,1.3c0,0.5,0.1,0.9,0.3,1.3c0.2,0.4,0.5,0.7,0.9,0.9C89.2,31.6,89.6,31.7,90,31.7z
			 M92.5,32.4v-1.9l0.1-1.3l-0.1-1.3v-4.5h0.9v9.1H92.5z"/>
		<path class="st1" d="M102.8,32.4c-0.6,0-1.2-0.1-1.8-0.3c-0.5-0.2-1-0.5-1.4-0.9c-0.4-0.4-0.7-0.8-0.9-1.4
			c-0.2-0.5-0.3-1.1-0.3-1.7c0-0.6,0.1-1.2,0.3-1.7c0.2-0.5,0.5-1,0.9-1.4s0.9-0.7,1.4-0.9c0.5-0.2,1.1-0.3,1.8-0.3
			c0.6,0,1.2,0.1,1.7,0.3c0.5,0.2,1,0.5,1.4,0.9l-0.6,0.6c-0.4-0.4-0.7-0.6-1.2-0.8c-0.4-0.2-0.9-0.2-1.4-0.2c-0.5,0-1,0.1-1.4,0.3
			s-0.8,0.4-1.1,0.7c-0.3,0.3-0.6,0.7-0.8,1.1c-0.2,0.4-0.3,0.9-0.3,1.4c0,0.5,0.1,1,0.3,1.4s0.4,0.8,0.8,1.1
			c0.3,0.3,0.7,0.6,1.1,0.7s0.9,0.3,1.4,0.3c0.5,0,0.9-0.1,1.4-0.2c0.4-0.2,0.8-0.4,1.2-0.8l0.6,0.6c-0.4,0.4-0.8,0.7-1.4,0.9
			C104,32.3,103.4,32.4,102.8,32.4z"/>
		<path class="st1" d="M110.9,25.9c0.5,0,1,0.1,1.4,0.3c0.4,0.2,0.7,0.5,0.9,0.9c0.2,0.4,0.3,0.9,0.3,1.5v3.7h-0.9v-3.6
			c0-0.7-0.2-1.2-0.5-1.5c-0.3-0.3-0.8-0.5-1.4-0.5c-0.5,0-0.9,0.1-1.2,0.3c-0.3,0.2-0.6,0.4-0.8,0.8c-0.2,0.3-0.3,0.8-0.3,1.3v3.4
			h-0.9v-9.1h0.9v4.4l-0.2-0.3c0.2-0.5,0.5-0.8,1-1.1C109.8,26,110.3,25.9,110.9,25.9z"/>
		<path class="st1" d="M118.6,32.4c-0.7,0-1.3-0.1-1.8-0.4c-0.5-0.3-0.9-0.7-1.2-1.2c-0.3-0.5-0.4-1.1-0.4-1.7
			c0-0.6,0.1-1.2,0.4-1.7c0.3-0.5,0.6-0.9,1.1-1.2c0.5-0.3,1-0.4,1.6-0.4c0.6,0,1.1,0.1,1.6,0.4c0.5,0.3,0.8,0.7,1.1,1.1
			s0.4,1.1,0.4,1.7c0,0,0,0.1,0,0.1c0,0,0,0.1,0,0.1h-5.6v-0.6h5.1l-0.3,0.3c0-0.5-0.1-0.9-0.3-1.2c-0.2-0.4-0.5-0.6-0.8-0.8
			s-0.7-0.3-1.2-0.3c-0.4,0-0.8,0.1-1.2,0.3c-0.4,0.2-0.6,0.5-0.8,0.9c-0.2,0.4-0.3,0.8-0.3,1.3v0.1c0,0.5,0.1,0.9,0.3,1.3
			c0.2,0.4,0.5,0.7,0.9,0.9c0.4,0.2,0.8,0.3,1.3,0.3c0.4,0,0.8-0.1,1.1-0.2c0.3-0.1,0.6-0.4,0.9-0.6l0.5,0.6
			c-0.3,0.3-0.6,0.6-1.1,0.8C119.6,32.3,119.2,32.4,118.6,32.4z"/>
		<path class="st1" d="M122.3,26.7V26h4v0.7H122.3z M123.4,32.4v-7.2c0-0.6,0.2-1,0.5-1.4c0.3-0.3,0.8-0.5,1.4-0.5
			c0.2,0,0.5,0,0.7,0.1c0.2,0.1,0.4,0.2,0.6,0.3l-0.3,0.6c-0.1-0.1-0.3-0.2-0.4-0.2c-0.2-0.1-0.3-0.1-0.5-0.1
			c-0.4,0-0.6,0.1-0.8,0.3c-0.2,0.2-0.3,0.5-0.3,0.9v1l0,0.4v5.8H123.4z"/>
	</g>
	<g>
		<path class="st1" d="M21.3,38L21.3,38C21.3,38,21.4,38,21.3,38c0.2,0,0.2,0,0.3,0c1.1-0.1,4.5-0.8,6.1-3c1.1-1.6,2.6-4.4,4.6-9.5
			c1.9-5.1,4.9-8.8,7.5-11.3l-7.4,1.1l0,0l-1.9,0.3L20.2,17l-1.5,0.2l0,0L8.7,18.7l-3.9,0.6l0.2,1.6c0,0,4,0.3,4.4,3.3l0,0l-4.6,0.7
			c-1.8,0.3-2.6,1.6-2.4,2.9c0.2,1.3,1.2,2.3,2.9,3c1.4,0.5,3.2,0.7,5.2,0.5l0.2,1.6c0.2-0.1,0.4-0.1,0.6-0.1
			c3.6-0.5,4.9,5.4,4.9,5.4s-2.1-2.2-4.9-1.5l0.8,5.1c1.2-1.2,3.8-2.5,7-3.2C19.9,38.2,20.6,38.1,21.3,38z M10.2,28.7
			c-3,0.2-4.4-0.6-4.8-0.9C5.1,27.7,5,27.5,5,27.5c0,0,0.1-0.1,0.3-0.1l4.6-0.7L10.2,28.7z M20,24.7c3-3.9,7.5,1.2,3.5,3.7
			c-4,2.5-5,3.9-5.6,6C17.8,34.4,16.9,28.6,20,24.7z"/>
		<path class="st1" d="M48,18.5l-4.6,0.7l0,0c-0.4-3,3.3-4.4,3.3-4.4l-0.2-1.4c-8.5,4.4-13.2,15.2-14.8,20.2c0,0-0.9,3.1-1.3,5.7
			c-0.4,2.4-2.4,7.5-9.2,8.9c-0.3,0.1-0.7,0.1-1,0.2c0,0-0.1,0-0.1,0c0,0,0,0,0,0l0,0c-3.9,0.5-6-0.7-7.2-2.1l0.2,1
			c0.4,3,3.2,5.1,6.2,4.6l4.7-0.7l0,0l3.2-0.5l10.5-1.6l0,0l4.7-0.7c3-0.4,5-3.2,4.6-6.2l-2.4-16c2-0.4,3.7-1.1,4.8-2
			c1.4-1.1,2.1-2.4,1.9-3.7C50.9,19.3,49.8,18.2,48,18.5z M48.3,21.5c-0.3,0.4-1.4,1.5-4.3,2.2l-0.3-2l4.6-0.7c0.2,0,0.3,0,0.3,0
			C48.6,21,48.5,21.2,48.3,21.5z"/>
		<path class="st1" d="M42.9,4.5c0,0-9.2-3.1-20.7-0.1l-0.5-1.6l-2.6,0.8l0.5,1.6C14,7.1,8,10.6,2.3,16.6L42.9,4.5z"/>
		<path class="st0" d="M12.6,43.4c0.3,1.4,3.7,1.7,7.7,0.8s6.8-2.7,6.5-4.1c-0.3-1.4-3.7-1.7-7.7-0.8C15.2,40.2,12.3,42,12.6,43.4z"
			/>
	</g>
</g>
</svg>
